<mxfile host="app.diagrams.net" modified="2021-09-10T07:44:19.399Z" agent="5.0 (X11; Linux x86_64) AppleWebKit/537.36 (KHTML, like Gecko) Chrome/93.0.4577.63 Safari/537.36" etag="QR0Zo19lAZW-Uc9L_wcL" version="15.0.6" type="github">
  <diagram id="uPRll6M5eb0Z-0uBqnHo" name="Page-1">
    <mxGraphModel dx="1434" dy="1007" grid="0" gridSize="10" guides="1" tooltips="1" connect="1" arrows="1" fold="1" page="1" pageScale="1" pageWidth="1100" pageHeight="850" math="0" shadow="0">
      <root>
        <mxCell id="0" />
        <mxCell id="1" parent="0" />
        <mxCell id="7EhR9RoNfgnr2oAYTbMp-80" value="SDEWAN ENV for Test" style="rounded=0;whiteSpace=wrap;html=1;verticalAlign=bottom;dashed=1;align=left;labelBorderColor=none;fontStyle=1;strokeColor=#FFD966;fontColor=#FFD966;" parent="1" vertex="1">
          <mxGeometry x="100" y="480" width="620" height="130" as="geometry" />
        </mxCell>
        <mxCell id="7EhR9RoNfgnr2oAYTbMp-63" value="SDEWAN Demo ENV" style="rounded=0;whiteSpace=wrap;html=1;verticalAlign=bottom;dashed=1;align=left;labelBorderColor=none;fontStyle=1;fontColor=#EA6B66;strokeColor=#EA6B66;" parent="1" vertex="1">
          <mxGeometry x="100" y="310" width="620" height="150" as="geometry" />
        </mxCell>
        <mxCell id="7EhR9RoNfgnr2oAYTbMp-49" style="edgeStyle=orthogonalEdgeStyle;rounded=0;orthogonalLoop=1;jettySize=auto;html=1;entryX=1;entryY=0.5;entryDx=0;entryDy=0;fillColor=#d5e8d4;strokeColor=#82b366;" parent="1" source="7EhR9RoNfgnr2oAYTbMp-2" target="7EhR9RoNfgnr2oAYTbMp-15" edge="1">
          <mxGeometry relative="1" as="geometry">
            <Array as="points">
              <mxPoint x="270" y="250" />
              <mxPoint x="270" y="395" />
            </Array>
          </mxGeometry>
        </mxCell>
        <mxCell id="7EhR9RoNfgnr2oAYTbMp-58" style="edgeStyle=orthogonalEdgeStyle;rounded=0;orthogonalLoop=1;jettySize=auto;html=1;entryX=1;entryY=0.5;entryDx=0;entryDy=0;fillColor=#d5e8d4;strokeColor=#82b366;" parent="1" source="7EhR9RoNfgnr2oAYTbMp-2" target="7EhR9RoNfgnr2oAYTbMp-45" edge="1">
          <mxGeometry relative="1" as="geometry">
            <Array as="points">
              <mxPoint x="560" y="367" />
            </Array>
          </mxGeometry>
        </mxCell>
        <mxCell id="7EhR9RoNfgnr2oAYTbMp-60" style="edgeStyle=orthogonalEdgeStyle;rounded=0;orthogonalLoop=1;jettySize=auto;html=1;entryX=1;entryY=0.5;entryDx=0;entryDy=0;jumpSize=2;fillColor=#d5e8d4;strokeColor=#82b366;" parent="1" source="7EhR9RoNfgnr2oAYTbMp-2" target="7EhR9RoNfgnr2oAYTbMp-43" edge="1">
          <mxGeometry relative="1" as="geometry">
            <Array as="points">
              <mxPoint x="420" y="255" />
              <mxPoint x="420" y="375" />
            </Array>
          </mxGeometry>
        </mxCell>
        <mxCell id="7EhR9RoNfgnr2oAYTbMp-61" style="edgeStyle=orthogonalEdgeStyle;rounded=0;orthogonalLoop=1;jettySize=auto;html=1;entryX=1.019;entryY=0.487;entryDx=0;entryDy=0;entryPerimeter=0;jumpSize=2;fillColor=#d5e8d4;strokeColor=#82b366;" parent="1" edge="1">
          <mxGeometry relative="1" as="geometry">
            <mxPoint x="688.28" y="374.61" as="targetPoint" />
            <mxPoint x="580.4000000000001" y="254.55555555555554" as="sourcePoint" />
            <Array as="points">
              <mxPoint x="700" y="255" />
              <mxPoint x="700" y="375" />
            </Array>
          </mxGeometry>
        </mxCell>
        <mxCell id="7EhR9RoNfgnr2oAYTbMp-2" value="" style="points=[];aspect=fixed;html=1;align=center;shadow=0;dashed=0;image;image=img/lib/allied_telesis/switch/Switch_24_port_L2.svg;" parent="1" vertex="1">
          <mxGeometry x="530" y="235.85" width="54.4" height="37.29" as="geometry" />
        </mxCell>
        <mxCell id="7EhR9RoNfgnr2oAYTbMp-3" value="&lt;b&gt;&lt;font style=&quot;font-size: 14px&quot;&gt;Hub&lt;/font&gt;&lt;/b&gt;" style="rounded=1;whiteSpace=wrap;html=1;verticalAlign=top;" parent="1" vertex="1">
          <mxGeometry x="130" y="320" width="120" height="110" as="geometry" />
        </mxCell>
        <mxCell id="7EhR9RoNfgnr2oAYTbMp-19" style="edgeStyle=orthogonalEdgeStyle;orthogonalLoop=1;jettySize=auto;html=1;exitX=1;exitY=0.5;exitDx=0;exitDy=0;entryX=1;entryY=0.5;entryDx=0;entryDy=0;rounded=0;" parent="1" source="7EhR9RoNfgnr2oAYTbMp-6" target="7EhR9RoNfgnr2oAYTbMp-14" edge="1">
          <mxGeometry relative="1" as="geometry">
            <Array as="points">
              <mxPoint x="260" y="250" />
              <mxPoint x="260" y="365" />
            </Array>
          </mxGeometry>
        </mxCell>
        <mxCell id="7EhR9RoNfgnr2oAYTbMp-6" value="&lt;b&gt;Lab Network&lt;/b&gt;" style="image;html=1;image=img/lib/clip_art/networking/Router_Icon_128x128.png;verticalAlign=top;" parent="1" vertex="1">
          <mxGeometry x="180" y="231.14" width="50" height="50" as="geometry" />
        </mxCell>
        <mxCell id="7EhR9RoNfgnr2oAYTbMp-14" value="&lt;span&gt;OutIP: 10.239.241.6&lt;/span&gt;" style="rounded=0;whiteSpace=wrap;html=1;fillColor=#f8cecc;strokeColor=#b85450;" parent="1" vertex="1">
          <mxGeometry x="130" y="350" width="120" height="30" as="geometry" />
        </mxCell>
        <mxCell id="7EhR9RoNfgnr2oAYTbMp-15" value="&lt;span&gt;I&lt;/span&gt;nnerIP:10.10.10.35" style="rounded=0;whiteSpace=wrap;html=1;fillColor=#d5e8d4;strokeColor=#82b366;" parent="1" vertex="1">
          <mxGeometry x="130" y="380" width="120" height="30" as="geometry" />
        </mxCell>
        <mxCell id="7EhR9RoNfgnr2oAYTbMp-22" style="edgeStyle=orthogonalEdgeStyle;rounded=0;orthogonalLoop=1;jettySize=auto;html=1;exitX=1;exitY=0.3333333333333333;exitDx=0;exitDy=0;exitPerimeter=0;" parent="1" source="7EhR9RoNfgnr2oAYTbMp-21" target="7EhR9RoNfgnr2oAYTbMp-6" edge="1">
          <mxGeometry relative="1" as="geometry" />
        </mxCell>
        <mxCell id="7EhR9RoNfgnr2oAYTbMp-21" value="" style="shape=umlActor;verticalLabelPosition=bottom;verticalAlign=top;html=1;outlineConnect=0;" parent="1" vertex="1">
          <mxGeometry x="120" y="248.49" width="10" height="22" as="geometry" />
        </mxCell>
        <mxCell id="7EhR9RoNfgnr2oAYTbMp-42" value="&lt;b&gt;&lt;font style=&quot;font-size: 14px&quot;&gt;Edge1&lt;/font&gt;&lt;/b&gt;" style="rounded=1;whiteSpace=wrap;html=1;verticalAlign=top;" parent="1" vertex="1">
          <mxGeometry x="280" y="320" width="120" height="110" as="geometry" />
        </mxCell>
        <mxCell id="7EhR9RoNfgnr2oAYTbMp-43" value="&lt;span&gt;I&lt;/span&gt;nnerIP:10.10.10.15" style="rounded=0;whiteSpace=wrap;html=1;fillColor=#d5e8d4;strokeColor=#82b366;" parent="1" vertex="1">
          <mxGeometry x="280" y="360" width="120" height="30" as="geometry" />
        </mxCell>
        <mxCell id="7EhR9RoNfgnr2oAYTbMp-44" value="&lt;b&gt;&lt;font style=&quot;font-size: 14px&quot;&gt;Edge2&lt;/font&gt;&lt;/b&gt;" style="rounded=1;whiteSpace=wrap;html=1;verticalAlign=top;" parent="1" vertex="1">
          <mxGeometry x="427" y="320" width="120" height="110" as="geometry" />
        </mxCell>
        <mxCell id="7EhR9RoNfgnr2oAYTbMp-45" value="&lt;span&gt;I&lt;/span&gt;nnerIP:10.10.10.25" style="rounded=0;whiteSpace=wrap;html=1;fillColor=#d5e8d4;strokeColor=#82b366;" parent="1" vertex="1">
          <mxGeometry x="427" y="352" width="120" height="30" as="geometry" />
        </mxCell>
        <mxCell id="7EhR9RoNfgnr2oAYTbMp-46" value="&lt;b&gt;&lt;font style=&quot;font-size: 14px&quot;&gt;Overlay Ctrl&lt;/font&gt;&lt;/b&gt;" style="rounded=1;whiteSpace=wrap;html=1;verticalAlign=top;" parent="1" vertex="1">
          <mxGeometry x="570" y="320" width="120" height="110" as="geometry" />
        </mxCell>
        <mxCell id="7EhR9RoNfgnr2oAYTbMp-47" value="&lt;span&gt;I&lt;/span&gt;nnerIP:10.10.10.45" style="rounded=0;whiteSpace=wrap;html=1;fillColor=#d5e8d4;strokeColor=#82b366;" parent="1" vertex="1">
          <mxGeometry x="570" y="360" width="120" height="30" as="geometry" />
        </mxCell>
        <mxCell id="7EhR9RoNfgnr2oAYTbMp-75" style="edgeStyle=orthogonalEdgeStyle;rounded=0;jumpSize=2;orthogonalLoop=1;jettySize=auto;html=1;fillColor=#dae8fc;strokeColor=#6c8ebf;" parent="1" source="7EhR9RoNfgnr2oAYTbMp-64" target="7EhR9RoNfgnr2oAYTbMp-66" edge="1">
          <mxGeometry relative="1" as="geometry">
            <Array as="points">
              <mxPoint x="487" y="470" />
              <mxPoint x="190" y="470" />
            </Array>
          </mxGeometry>
        </mxCell>
        <mxCell id="7EhR9RoNfgnr2oAYTbMp-76" style="edgeStyle=orthogonalEdgeStyle;rounded=0;jumpSize=2;orthogonalLoop=1;jettySize=auto;html=1;fillColor=#dae8fc;strokeColor=#6c8ebf;" parent="1" source="7EhR9RoNfgnr2oAYTbMp-64" target="7EhR9RoNfgnr2oAYTbMp-69" edge="1">
          <mxGeometry relative="1" as="geometry">
            <Array as="points">
              <mxPoint x="487" y="470" />
              <mxPoint x="340" y="470" />
            </Array>
          </mxGeometry>
        </mxCell>
        <mxCell id="7EhR9RoNfgnr2oAYTbMp-77" style="edgeStyle=orthogonalEdgeStyle;rounded=0;jumpSize=2;orthogonalLoop=1;jettySize=auto;html=1;exitX=0.5;exitY=1;exitDx=0;exitDy=0;fillColor=#dae8fc;strokeColor=#6c8ebf;" parent="1" source="7EhR9RoNfgnr2oAYTbMp-64" target="7EhR9RoNfgnr2oAYTbMp-71" edge="1">
          <mxGeometry relative="1" as="geometry">
            <Array as="points">
              <mxPoint x="488" y="490" />
              <mxPoint x="488" y="490" />
            </Array>
          </mxGeometry>
        </mxCell>
        <mxCell id="7EhR9RoNfgnr2oAYTbMp-78" style="edgeStyle=orthogonalEdgeStyle;rounded=0;jumpSize=2;orthogonalLoop=1;jettySize=auto;html=1;exitX=0.5;exitY=1;exitDx=0;exitDy=0;fillColor=#dae8fc;strokeColor=#6c8ebf;" parent="1" source="7EhR9RoNfgnr2oAYTbMp-64" target="7EhR9RoNfgnr2oAYTbMp-73" edge="1">
          <mxGeometry relative="1" as="geometry">
            <Array as="points">
              <mxPoint x="487" y="470" />
              <mxPoint x="630" y="470" />
            </Array>
          </mxGeometry>
        </mxCell>
        <mxCell id="7EhR9RoNfgnr2oAYTbMp-64" value="&lt;span&gt;VM&lt;br&gt;BrigeIP:10.112.232.1&lt;/span&gt;" style="rounded=1;whiteSpace=wrap;html=1;fillColor=#b0e3e6;strokeColor=#0e8088;" parent="1" vertex="1">
          <mxGeometry x="429" y="388" width="117" height="30" as="geometry" />
        </mxCell>
        <mxCell id="7EhR9RoNfgnr2oAYTbMp-66" value="&lt;b&gt;&lt;font style=&quot;font-size: 14px&quot;&gt;Hub&lt;/font&gt;&lt;/b&gt;" style="rounded=1;whiteSpace=wrap;html=1;verticalAlign=top;dashed=1;dashPattern=1 1;" parent="1" vertex="1">
          <mxGeometry x="130" y="500" width="120" height="80" as="geometry" />
        </mxCell>
        <mxCell id="7EhR9RoNfgnr2oAYTbMp-68" value="IP:10.112.232.169" style="rounded=0;whiteSpace=wrap;html=1;fillColor=#b1ddf0;strokeColor=#10739e;" parent="1" vertex="1">
          <mxGeometry x="130" y="532" width="120" height="30" as="geometry" />
        </mxCell>
        <mxCell id="7EhR9RoNfgnr2oAYTbMp-69" value="&lt;b&gt;&lt;font style=&quot;font-size: 14px&quot;&gt;Edge1&lt;/font&gt;&lt;/b&gt;" style="rounded=1;whiteSpace=wrap;html=1;verticalAlign=top;dashed=1;dashPattern=1 1;" parent="1" vertex="1">
          <mxGeometry x="280" y="500" width="120" height="80" as="geometry" />
        </mxCell>
        <mxCell id="7EhR9RoNfgnr2oAYTbMp-70" value="IP:10.112.232.120" style="rounded=0;whiteSpace=wrap;html=1;fillColor=#b1ddf0;strokeColor=#10739e;" parent="1" vertex="1">
          <mxGeometry x="280" y="532" width="120" height="30" as="geometry" />
        </mxCell>
        <mxCell id="7EhR9RoNfgnr2oAYTbMp-71" value="&lt;b&gt;&lt;font style=&quot;font-size: 14px&quot;&gt;Edge2&lt;/font&gt;&lt;/b&gt;" style="rounded=1;whiteSpace=wrap;html=1;verticalAlign=top;dashed=1;dashPattern=1 1;" parent="1" vertex="1">
          <mxGeometry x="427" y="500" width="120" height="80" as="geometry" />
        </mxCell>
        <mxCell id="7EhR9RoNfgnr2oAYTbMp-72" value="&lt;span&gt;IP:10.112.232.120&lt;/span&gt;" style="rounded=0;whiteSpace=wrap;html=1;fillColor=#b1ddf0;strokeColor=#10739e;" parent="1" vertex="1">
          <mxGeometry x="427" y="532" width="120" height="30" as="geometry" />
        </mxCell>
        <mxCell id="7EhR9RoNfgnr2oAYTbMp-73" value="&lt;b&gt;&lt;font style=&quot;font-size: 14px&quot;&gt;Overlay Ctrl&lt;/font&gt;&lt;/b&gt;" style="rounded=1;whiteSpace=wrap;html=1;verticalAlign=top;dashed=1;dashPattern=1 1;" parent="1" vertex="1">
          <mxGeometry x="570" y="500" width="120" height="80" as="geometry" />
        </mxCell>
        <mxCell id="7EhR9RoNfgnr2oAYTbMp-74" value="IP:10.112.232.143" style="rounded=0;whiteSpace=wrap;html=1;fillColor=#b1ddf0;strokeColor=#10739e;" parent="1" vertex="1">
          <mxGeometry x="570" y="532" width="120" height="30" as="geometry" />
        </mxCell>
        <mxCell id="3yVlGVuV2btpdbxURkGZ-30" value="Edge-1" style="rounded=1;whiteSpace=wrap;html=1;fontSize=22;fontColor=#9AC7BF;verticalAlign=top;arcSize=3;dashed=1;container=0;" vertex="1" parent="1">
          <mxGeometry x="952" y="1491" width="481" height="322" as="geometry" />
        </mxCell>
        <mxCell id="3yVlGVuV2btpdbxURkGZ-56" value="" style="group" vertex="1" connectable="0" parent="1">
          <mxGeometry x="638" y="990" width="535" height="175" as="geometry" />
        </mxCell>
        <mxCell id="3yVlGVuV2btpdbxURkGZ-27" value="Hub" style="rounded=1;whiteSpace=wrap;html=1;fontSize=22;fontColor=#9AC7BF;verticalAlign=top;arcSize=3;dashed=1;container=0;" vertex="1" parent="3yVlGVuV2btpdbxURkGZ-56">
          <mxGeometry width="535" height="175" as="geometry" />
        </mxCell>
        <mxCell id="3yVlGVuV2btpdbxURkGZ-4" value="CNF" style="rounded=0;whiteSpace=wrap;html=1;align=left;verticalAlign=top;labelBorderColor=#9AC7BF;fontColor=#9AC7BF;fontSize=18;container=0;" vertex="1" parent="3yVlGVuV2btpdbxURkGZ-56">
          <mxGeometry x="73" y="57" width="454" height="109" as="geometry" />
        </mxCell>
        <mxCell id="3yVlGVuV2btpdbxURkGZ-2" value="&lt;span&gt;etho:10.233.117.220&lt;/span&gt;" style="rounded=0;whiteSpace=wrap;html=1;fillColor=#f8cecc;strokeColor=#b85450;container=0;" vertex="1" parent="3yVlGVuV2btpdbxURkGZ-56">
          <mxGeometry x="73.55059577615248" y="144.62068965517233" width="132.14298627660452" height="21.379310344827587" as="geometry" />
        </mxCell>
        <mxCell id="3yVlGVuV2btpdbxURkGZ-3" value="net0: 172.16.70.49/24" style="rounded=0;whiteSpace=wrap;html=1;fillColor=#d5e8d4;strokeColor=#82b366;container=0;" vertex="1" parent="3yVlGVuV2btpdbxURkGZ-56">
          <mxGeometry x="394.3128276768839" y="101.86206896551721" width="132.14298627660452" height="21.379310344827587" as="geometry" />
        </mxCell>
        <mxCell id="3yVlGVuV2btpdbxURkGZ-5" value="net1:10.154.142.11/18" style="rounded=0;whiteSpace=wrap;html=1;fillColor=#d5e8d4;strokeColor=#82b366;container=0;" vertex="1" parent="3yVlGVuV2btpdbxURkGZ-56">
          <mxGeometry x="394.3128276768839" y="123.24137931034488" width="132.14298627660452" height="21.379310344827587" as="geometry" />
        </mxCell>
        <mxCell id="3yVlGVuV2btpdbxURkGZ-6" value="net2:10.10.70.49/24" style="rounded=0;whiteSpace=wrap;html=1;fillColor=#d5e8d4;strokeColor=#82b366;container=0;" vertex="1" parent="3yVlGVuV2btpdbxURkGZ-56">
          <mxGeometry x="394.3128276768839" y="144.62068965517233" width="132.14298627660452" height="21.379310344827587" as="geometry" />
        </mxCell>
        <mxCell id="3yVlGVuV2btpdbxURkGZ-8" value="172.16.70.0/24&amp;nbsp; --&amp;gt;" style="rounded=0;whiteSpace=wrap;html=1;fillColor=#dae8fc;strokeColor=#6c8ebf;container=0;" vertex="1" parent="3yVlGVuV2btpdbxURkGZ-56">
          <mxGeometry x="262.16984140027944" y="101.86206896551721" width="132.14298627660452" height="21.379310344827587" as="geometry" />
        </mxCell>
        <mxCell id="3yVlGVuV2btpdbxURkGZ-9" value="10.154.128.0/18&amp;nbsp; --&amp;gt;" style="rounded=0;whiteSpace=wrap;html=1;fillColor=#dae8fc;strokeColor=#6c8ebf;container=0;" vertex="1" parent="3yVlGVuV2btpdbxURkGZ-56">
          <mxGeometry x="262.16984140027944" y="123.24137931034488" width="132.14298627660452" height="21.379310344827587" as="geometry" />
        </mxCell>
        <mxCell id="3yVlGVuV2btpdbxURkGZ-10" value="172.16.70/24&amp;nbsp; --&amp;gt;" style="rounded=0;whiteSpace=wrap;html=1;fillColor=#dae8fc;strokeColor=#6c8ebf;container=0;" vertex="1" parent="3yVlGVuV2btpdbxURkGZ-56">
          <mxGeometry x="262.16984140027944" y="144.62068965517233" width="132.14298627660452" height="21.379310344827587" as="geometry" />
        </mxCell>
        <mxCell id="3yVlGVuV2btpdbxURkGZ-21" value="169.254.1.1&amp;nbsp; --&amp;gt;" style="rounded=0;whiteSpace=wrap;html=1;fillColor=#dae8fc;strokeColor=#6c8ebf;container=0;" vertex="1" parent="3yVlGVuV2btpdbxURkGZ-56">
          <mxGeometry x="73.55059577615248" y="123.24137931034488" width="132.14298627660452" height="21.379310344827587" as="geometry" />
        </mxCell>
        <mxCell id="3yVlGVuV2btpdbxURkGZ-77" value="" style="group" vertex="1" connectable="0" parent="1">
          <mxGeometry x="966" y="1692" width="326.46000000000004" height="109" as="geometry" />
        </mxCell>
        <mxCell id="3yVlGVuV2btpdbxURkGZ-68" value="APP" style="rounded=0;whiteSpace=wrap;html=1;align=left;verticalAlign=top;labelBorderColor=#9AC7BF;fontColor=#9AC7BF;fontSize=18;container=0;" vertex="1" parent="3yVlGVuV2btpdbxURkGZ-77">
          <mxGeometry width="326.46" height="109" as="geometry" />
        </mxCell>
        <mxCell id="3yVlGVuV2btpdbxURkGZ-70" value="net0: 172.16.70.49/24" style="rounded=0;whiteSpace=wrap;html=1;fillColor=#f8cecc;strokeColor=#b85450;container=0;" vertex="1" parent="3yVlGVuV2btpdbxURkGZ-77">
          <mxGeometry x="193.77282767688394" y="44.86206896551721" width="132.14298627660452" height="21.379310344827587" as="geometry" />
        </mxCell>
        <mxCell id="3yVlGVuV2btpdbxURkGZ-71" value="net1:10.154.142.11/18" style="rounded=0;whiteSpace=wrap;html=1;fillColor=#d5e8d4;strokeColor=#82b366;container=0;" vertex="1" parent="3yVlGVuV2btpdbxURkGZ-77">
          <mxGeometry x="193.77282767688394" y="66.24137931034488" width="132.14298627660452" height="21.379310344827587" as="geometry" />
        </mxCell>
        <mxCell id="3yVlGVuV2btpdbxURkGZ-72" value="net2:10.10.70.49/24" style="rounded=0;whiteSpace=wrap;html=1;fillColor=#d5e8d4;strokeColor=#82b366;container=0;" vertex="1" parent="3yVlGVuV2btpdbxURkGZ-77">
          <mxGeometry x="193.77282767688394" y="87.62068965517233" width="132.14298627660452" height="21.379310344827587" as="geometry" />
        </mxCell>
        <mxCell id="3yVlGVuV2btpdbxURkGZ-73" value="172.16.70.0/24&amp;nbsp; --&amp;gt;" style="rounded=0;whiteSpace=wrap;html=1;fillColor=#dae8fc;strokeColor=#6c8ebf;container=0;" vertex="1" parent="3yVlGVuV2btpdbxURkGZ-77">
          <mxGeometry x="61.629841400279474" y="44.86206896551721" width="132.14298627660452" height="21.379310344827587" as="geometry" />
        </mxCell>
        <mxCell id="3yVlGVuV2btpdbxURkGZ-74" value="10.154.128.0/18&amp;nbsp; --&amp;gt;" style="rounded=0;whiteSpace=wrap;html=1;fillColor=#dae8fc;strokeColor=#6c8ebf;container=0;" vertex="1" parent="3yVlGVuV2btpdbxURkGZ-77">
          <mxGeometry x="61.629841400279474" y="66.24137931034488" width="132.14298627660452" height="21.379310344827587" as="geometry" />
        </mxCell>
        <mxCell id="3yVlGVuV2btpdbxURkGZ-75" value="172.16.70/24&amp;nbsp; --&amp;gt;" style="rounded=0;whiteSpace=wrap;html=1;fillColor=#dae8fc;strokeColor=#6c8ebf;container=0;" vertex="1" parent="3yVlGVuV2btpdbxURkGZ-77">
          <mxGeometry x="61.629841400279474" y="87.62068965517233" width="132.14298627660452" height="21.379310344827587" as="geometry" />
        </mxCell>
        <mxCell id="3yVlGVuV2btpdbxURkGZ-78" value="" style="group" vertex="1" connectable="0" parent="1">
          <mxGeometry x="966" y="1561" width="454" height="109" as="geometry" />
        </mxCell>
        <mxCell id="3yVlGVuV2btpdbxURkGZ-59" value="CNF" style="rounded=0;whiteSpace=wrap;html=1;align=left;verticalAlign=top;labelBorderColor=#9AC7BF;fontColor=#9AC7BF;fontSize=18;container=0;" vertex="1" parent="3yVlGVuV2btpdbxURkGZ-78">
          <mxGeometry width="454" height="109" as="geometry" />
        </mxCell>
        <mxCell id="3yVlGVuV2btpdbxURkGZ-60" value="&lt;span&gt;etho:10.233.117.220&lt;/span&gt;" style="rounded=0;whiteSpace=wrap;html=1;fillColor=#f8cecc;strokeColor=#b85450;container=0;" vertex="1" parent="3yVlGVuV2btpdbxURkGZ-78">
          <mxGeometry x="0.5505957761524769" y="87.62068965517233" width="132.14298627660452" height="21.379310344827587" as="geometry" />
        </mxCell>
        <mxCell id="3yVlGVuV2btpdbxURkGZ-61" value="net0: 172.16.70.49/24" style="rounded=0;whiteSpace=wrap;html=1;fillColor=#d5e8d4;strokeColor=#82b366;container=0;" vertex="1" parent="3yVlGVuV2btpdbxURkGZ-78">
          <mxGeometry x="321.3128276768839" y="44.86206896551721" width="132.14298627660452" height="21.379310344827587" as="geometry" />
        </mxCell>
        <mxCell id="3yVlGVuV2btpdbxURkGZ-62" value="net1:10.154.142.11/18" style="rounded=0;whiteSpace=wrap;html=1;fillColor=#d5e8d4;strokeColor=#82b366;container=0;" vertex="1" parent="3yVlGVuV2btpdbxURkGZ-78">
          <mxGeometry x="321.3128276768839" y="66.24137931034488" width="132.14298627660452" height="21.379310344827587" as="geometry" />
        </mxCell>
        <mxCell id="3yVlGVuV2btpdbxURkGZ-63" value="net2:10.10.70.49/24" style="rounded=0;whiteSpace=wrap;html=1;fillColor=#d5e8d4;strokeColor=#82b366;container=0;" vertex="1" parent="3yVlGVuV2btpdbxURkGZ-78">
          <mxGeometry x="321.3128276768839" y="87.62068965517233" width="132.14298627660452" height="21.379310344827587" as="geometry" />
        </mxCell>
        <mxCell id="3yVlGVuV2btpdbxURkGZ-64" value="172.16.70.0/24&amp;nbsp; --&amp;gt;" style="rounded=0;whiteSpace=wrap;html=1;fillColor=#dae8fc;strokeColor=#6c8ebf;container=0;" vertex="1" parent="3yVlGVuV2btpdbxURkGZ-78">
          <mxGeometry x="189.16984140027944" y="44.86206896551721" width="132.14298627660452" height="21.379310344827587" as="geometry" />
        </mxCell>
        <mxCell id="3yVlGVuV2btpdbxURkGZ-65" value="10.154.128.0/18&amp;nbsp; --&amp;gt;" style="rounded=0;whiteSpace=wrap;html=1;fillColor=#dae8fc;strokeColor=#6c8ebf;container=0;" vertex="1" parent="3yVlGVuV2btpdbxURkGZ-78">
          <mxGeometry x="189.16984140027944" y="66.24137931034488" width="132.14298627660452" height="21.379310344827587" as="geometry" />
        </mxCell>
        <mxCell id="3yVlGVuV2btpdbxURkGZ-66" value="172.16.70/24&amp;nbsp; --&amp;gt;" style="rounded=0;whiteSpace=wrap;html=1;fillColor=#dae8fc;strokeColor=#6c8ebf;container=0;" vertex="1" parent="3yVlGVuV2btpdbxURkGZ-78">
          <mxGeometry x="189.16984140027944" y="87.62068965517233" width="132.14298627660452" height="21.379310344827587" as="geometry" />
        </mxCell>
        <mxCell id="3yVlGVuV2btpdbxURkGZ-67" value="169.254.1.1&amp;nbsp; --&amp;gt;" style="rounded=0;whiteSpace=wrap;html=1;fillColor=#dae8fc;strokeColor=#6c8ebf;container=0;" vertex="1" parent="3yVlGVuV2btpdbxURkGZ-78">
          <mxGeometry x="0.5505957761524769" y="66.24137931034488" width="132.14298627660452" height="21.379310344827587" as="geometry" />
        </mxCell>
      </root>
    </mxGraphModel>
  </diagram>
</mxfile>
